# xmcd CD database file
#
# Track frame offsets:
#	150
#	19977
#	40082
#	54192
#	74947
#	97402
#	117305
#	134710
#	152857
#	170830
#	190785
#
# Disc length: 2755 seconds
#
# Revision: 18
# Processed by: cddbd v1.5.2PL0 Copyright (c) Steve Scherf et al.
# Submitted via: CDex 1.51
#
DISCID=aa0ac10b
DTITLE=O.S.T. - Judgment Night
DYEAR=1993
DGENRE=Soundtrack
TTITLE0=Just Another Victim - Helmet and House Of Pain
TTITLE1=Fallin' - Teenage Fanclub and De La Soul
TTITLE2=Me, Myself and My Microphone - Living Colour and Run D.M.C.
TTITLE3=Judgment Night - Biohazard and Onyx
TTITLE4=Disorder - Slayer and Ice-T
TTITLE5=Another Body Murdered - Faith No More and Boo-Yaa T.R.I.B.E.
TTITLE6=I Love You Mary Jane - Sonic Youth and Cypress Hill
TTITLE7=Freak Momma - Mudhoney and Sir Mix-A-Lot
TTITLE8=Missing Link - Dinosaur Jr and Del The Funky Homosapien
TTITLE9=Come And Die - Therapy? and Fatal
TTITLE10=Real Thing - Pearl Jam and Cypress Hill
EXTD=YEAR: 1993
EXTT0=
EXTT1=
EXTT2=
EXTT3=
EXTT4=
EXTT5=
EXTT6=
EXTT7=
EXTT8=
EXTT9=
EXTT10=
PLAYORDER=
